<svg width="29" height="18" viewBox="0 0 29 18" fill="none" xmlns="http://www.w3.org/2000/svg">
<path d="M0.975 0.499998H4V0.774999L6.625 4.7L10.025 0.499998H13.05L13.05 18H10.025L10.025 4.575L8.05 6.9V8.475H5.875V8.075L4 5.275V18H0.975L0.975 0.499998ZM18.2902 -1.13249e-06H25.7902L28.0152 3.325V15.6L25.7402 18H18.2402L15.9652 14.65V2.375L18.2902 -1.13249e-06ZM18.9902 3.325V10.475L24.9902 4.25V3.9L24.2652 2.825H19.4402L18.9902 3.325ZM18.9902 14.15L19.7152 15.175H24.5152L24.9902 14.675V7.75L18.9902 14V14.15Z" fill="#E2E2E2"/>
</svg>
